# xmcd
#
# Track frame offsets: 
#        150
#        14385
#        29322
#        43185
#        56110
#        69262
#        83425
#        95900
#        111677
#        125760
#        141072
#        155710
#        169607
#        184802
#        198515
#        213592
#        226930
#        239662
#        250790
#        265347
#        280295
#        294022
#        308550
#        322717
#        336825
#
# Disc length: 4653 seconds
#
# Revision: 0
# Processed by: cddbd v1.4PL0 Copyright (c) Steve Scherf et al.
# Submitted via: ExactAudioCopy v0.90a11
#
DISCID=71122b19
DTITLE=The Ink Spots - Their Greatest Hits
DYEAR=1900
DGENRE=
TTITLE0=If I Didn't Care
TTITLE1=My Prayer
TTITLE2=Memories Of You
TTITLE3=I'm Getting Sentimental Over You
TTITLE4=Bless You
TTITLE5=Maybe
TTITLE6=Whispering Grass
TTITLE7=I'll Never Smile Again
TTITLE8=I Don't Want To Set The World On Fire
TTITLE9=We Three
TTITLE10=Ring Telephone Ring
TTITLE11=Java Jive
TTITLE12=Someone's Rocking My Dreamboat
TTITLE13=Cow Cow Boogie
TTITLE14=A Lovely Way To Spend An Evening
TTITLE15=I'll Get By
TTITLE16=I'm Beggining To See The Light
TTITLE17=It's A Sin To Tell A Lie
TTITLE18=To Each His Own
TTITLE19=Every Night About This Time
TTITLE20=Street Of Dreams
TTITLE21=Where Flamingoes Fly
TTITLE22=Don't Get Around Much Anymore
TTITLE23=Prisoner Of Love
TTITLE24=Do I Worry
EXTD=
EXTT0=
EXTT1=
EXTT2=
EXTT3=
EXTT4=
EXTT5=
EXTT6=
EXTT7=
EXTT8=
EXTT9=
EXTT10=
EXTT11=
EXTT12=
EXTT13=
EXTT14=
EXTT15=
EXTT16=
EXTT17=
EXTT18=
EXTT19=
EXTT20=
EXTT21=
EXTT22=
EXTT23=
EXTT24=
PLAYORDER=
